<mxfile host="Electron" modified="2024-03-09T23:21:21.252Z" agent="Mozilla/5.0 (Windows NT 10.0; Win64; x64) AppleWebKit/537.36 (KHTML, like Gecko) draw.io/22.1.11 Chrome/114.0.5735.289 Electron/25.9.8 Safari/537.36" etag="eNpkc4WP8LR_Ppez9FZj" version="22.1.11" type="device" pages="2">
  <diagram name="Seite-1" id="6UvOKlu15-c2GeYOwIyS">
    <mxGraphModel dx="4298" dy="2127" grid="1" gridSize="10" guides="1" tooltips="1" connect="1" arrows="1" fold="1" page="1" pageScale="1" pageWidth="827" pageHeight="1169" math="0" shadow="0">
      <root>
        <mxCell id="0" />
        <mxCell id="1" parent="0" />
        <mxCell id="hHdZRXitBn-5caflbpVJ-1" value="doodlemox" style="rounded=0;whiteSpace=wrap;html=1;align=left;verticalAlign=top;fontSize=50;strokeWidth=6;" parent="1" vertex="1">
          <mxGeometry x="-240" y="80" width="680" height="920" as="geometry" />
        </mxCell>
        <mxCell id="hHdZRXitBn-5caflbpVJ-2" value="minismox" style="rounded=0;whiteSpace=wrap;html=1;fontSize=50;align=left;verticalAlign=top;strokeWidth=6;" parent="1" vertex="1">
          <mxGeometry x="480" y="80" width="680" height="920" as="geometry" />
        </mxCell>
        <mxCell id="hHdZRXitBn-5caflbpVJ-3" value="nanomox" style="rounded=0;whiteSpace=wrap;html=1;fontSize=50;align=left;verticalAlign=top;strokeWidth=6;" parent="1" vertex="1">
          <mxGeometry x="1200" y="80" width="680" height="920" as="geometry" />
        </mxCell>
        <mxCell id="hHdZRXitBn-5caflbpVJ-33" value="vlan 111 192.168.111.0/24" style="rounded=0;whiteSpace=wrap;html=1;fontSize=45;points=[[0,0,0,0,0],[0,0.25,0,0,0],[0,0.5,0,0,0],[0,0.75,0,0,0],[0,1,0,0,0],[0.25,0,0,0,0],[0.25,1,0,0,0],[0.5,0,0,0,0],[0.5,1,0,0,0],[0.75,0,0,0,0],[0.75,1,0,0,0],[1,0,0,0,0],[1,0.25,0,0,0],[1,0.5,0,0,0],[1,0.75,0,0,0],[1,1,0,0,0]];strokeWidth=6;fillColor=#e3c800;fontColor=#000000;strokeColor=#B09500;" parent="1" vertex="1">
          <mxGeometry x="-240" y="1080" width="2120" height="120" as="geometry" />
        </mxCell>
        <mxCell id="hHdZRXitBn-5caflbpVJ-34" value="" style="endArrow=none;html=1;rounded=0;strokeWidth=19;shape=link;entryX=0.25;entryY=1;entryDx=0;entryDy=0;exitX=0.08;exitY=0;exitDx=0;exitDy=0;exitPerimeter=0;" parent="1" edge="1">
          <mxGeometry width="50" height="50" relative="1" as="geometry">
            <mxPoint x="-99.99999999999986" y="1080" as="sourcePoint" />
            <mxPoint x="-99.6" y="1000" as="targetPoint" />
          </mxGeometry>
        </mxCell>
        <mxCell id="hHdZRXitBn-5caflbpVJ-36" value="" style="endArrow=none;html=1;rounded=0;strokeWidth=19;shape=link;entryX=0.25;entryY=1;entryDx=0;entryDy=0;" parent="1" edge="1">
          <mxGeometry width="50" height="50" relative="1" as="geometry">
            <mxPoint x="620" y="1080" as="sourcePoint" />
            <mxPoint x="619.9999999999995" y="1000" as="targetPoint" />
          </mxGeometry>
        </mxCell>
        <mxCell id="hHdZRXitBn-5caflbpVJ-37" value="" style="endArrow=none;html=1;rounded=0;strokeWidth=19;shape=link;entryX=0.25;entryY=1;entryDx=0;entryDy=0;" parent="1" edge="1">
          <mxGeometry width="50" height="50" relative="1" as="geometry">
            <mxPoint x="1340" y="1080" as="sourcePoint" />
            <mxPoint x="1340" y="1000" as="targetPoint" />
          </mxGeometry>
        </mxCell>
        <mxCell id="hHdZRXitBn-5caflbpVJ-41" value="" style="group;fillColor=#e51400;fontColor=#ffffff;strokeColor=#B20000;" parent="1" vertex="1" connectable="0">
          <mxGeometry x="-240" y="210" width="2120" height="220" as="geometry" />
        </mxCell>
        <mxCell id="hHdZRXitBn-5caflbpVJ-5" value="" style="rounded=0;whiteSpace=wrap;html=1;fillColor=#e51400;strokeColor=#B20000;fontColor=#ffffff;" parent="hHdZRXitBn-5caflbpVJ-41" vertex="1">
          <mxGeometry width="2120" height="220" as="geometry" />
        </mxCell>
        <mxCell id="hHdZRXitBn-5caflbpVJ-38" value="ABXP1VXN" style="rounded=0;whiteSpace=wrap;html=1;" parent="hHdZRXitBn-5caflbpVJ-41" vertex="1">
          <mxGeometry y="95" width="90" height="30" as="geometry" />
        </mxCell>
        <mxCell id="hHdZRXitBn-5caflbpVJ-183" value="" style="group" parent="hHdZRXitBn-5caflbpVJ-41" vertex="1" connectable="0">
          <mxGeometry x="1580" y="10" width="80" height="80" as="geometry" />
        </mxCell>
        <mxCell id="hHdZRXitBn-5caflbpVJ-25" value="p3r1v" style="rounded=1;whiteSpace=wrap;html=1;" parent="hHdZRXitBn-5caflbpVJ-183" vertex="1">
          <mxGeometry width="80" height="80" as="geometry" />
        </mxCell>
        <mxCell id="hHdZRXitBn-5caflbpVJ-74" value="1" style="ellipse;whiteSpace=wrap;html=1;aspect=fixed;fontFamily=Helvetica;fontSize=11;fillColor=#cdeb8b;strokeColor=#36393d;" parent="hHdZRXitBn-5caflbpVJ-183" vertex="1">
          <mxGeometry y="35" width="10" height="10" as="geometry" />
        </mxCell>
        <mxCell id="hHdZRXitBn-5caflbpVJ-75" value="2" style="ellipse;whiteSpace=wrap;html=1;aspect=fixed;fontFamily=Helvetica;fontSize=11;fillColor=#ffcccc;strokeColor=#36393d;" parent="hHdZRXitBn-5caflbpVJ-183" vertex="1">
          <mxGeometry x="35" width="10" height="10" as="geometry" />
        </mxCell>
        <mxCell id="hHdZRXitBn-5caflbpVJ-78" value="3" style="ellipse;whiteSpace=wrap;html=1;aspect=fixed;fontFamily=Helvetica;fontSize=11;fillColor=#cdeb8b;strokeColor=#36393d;" parent="hHdZRXitBn-5caflbpVJ-183" vertex="1">
          <mxGeometry x="70" y="35" width="10" height="10" as="geometry" />
        </mxCell>
        <mxCell id="hHdZRXitBn-5caflbpVJ-79" value="4" style="ellipse;whiteSpace=wrap;html=1;aspect=fixed;fontFamily=Helvetica;fontSize=11;fillColor=#cdeb8b;strokeColor=#36393d;" parent="hHdZRXitBn-5caflbpVJ-183" vertex="1">
          <mxGeometry x="35" y="70" width="10" height="10" as="geometry" />
        </mxCell>
        <mxCell id="hHdZRXitBn-5caflbpVJ-184" value="" style="group" parent="hHdZRXitBn-5caflbpVJ-41" vertex="1" connectable="0">
          <mxGeometry x="1580" y="130" width="80" height="80" as="geometry" />
        </mxCell>
        <mxCell id="hHdZRXitBn-5caflbpVJ-29" value="p3r5v" style="rounded=1;whiteSpace=wrap;html=1;" parent="hHdZRXitBn-5caflbpVJ-184" vertex="1">
          <mxGeometry width="80" height="80" as="geometry" />
        </mxCell>
        <mxCell id="hHdZRXitBn-5caflbpVJ-176" value="2" style="ellipse;whiteSpace=wrap;html=1;aspect=fixed;fontFamily=Helvetica;fontSize=11;fillColor=#cdeb8b;strokeColor=#36393d;" parent="hHdZRXitBn-5caflbpVJ-184" vertex="1">
          <mxGeometry x="35" width="10" height="10" as="geometry" />
        </mxCell>
        <mxCell id="hHdZRXitBn-5caflbpVJ-177" value="1" style="ellipse;whiteSpace=wrap;html=1;aspect=fixed;fontFamily=Helvetica;fontSize=11;fillColor=#ffcccc;strokeColor=#36393d;" parent="hHdZRXitBn-5caflbpVJ-184" vertex="1">
          <mxGeometry y="35" width="10" height="10" as="geometry" />
        </mxCell>
        <mxCell id="hHdZRXitBn-5caflbpVJ-178" value="4" style="ellipse;whiteSpace=wrap;html=1;aspect=fixed;fontFamily=Helvetica;fontSize=11;fillColor=#ffcccc;strokeColor=#36393d;" parent="hHdZRXitBn-5caflbpVJ-184" vertex="1">
          <mxGeometry x="35" y="70" width="10" height="10" as="geometry" />
        </mxCell>
        <mxCell id="hHdZRXitBn-5caflbpVJ-179" value="3" style="ellipse;whiteSpace=wrap;html=1;aspect=fixed;fontFamily=Helvetica;fontSize=11;fillColor=#cdeb8b;strokeColor=#36393d;" parent="hHdZRXitBn-5caflbpVJ-184" vertex="1">
          <mxGeometry x="70" y="35" width="10" height="10" as="geometry" />
        </mxCell>
        <mxCell id="hHdZRXitBn-5caflbpVJ-71" value="" style="edgeStyle=orthogonalEdgeStyle;shape=connector;rounded=0;orthogonalLoop=1;jettySize=auto;html=1;labelBackgroundColor=default;strokeColor=default;strokeWidth=2;align=center;verticalAlign=middle;fontFamily=Helvetica;fontSize=11;fontColor=default;endArrow=none;endFill=0;" parent="hHdZRXitBn-5caflbpVJ-41" source="hHdZRXitBn-5caflbpVJ-29" target="hHdZRXitBn-5caflbpVJ-25" edge="1">
          <mxGeometry relative="1" as="geometry" />
        </mxCell>
        <mxCell id="L8WDKNVMCZqGO0eqc8PA-5" value="AS65001" style="rounded=0;whiteSpace=wrap;html=1;" vertex="1" parent="hHdZRXitBn-5caflbpVJ-41">
          <mxGeometry x="125" y="80" width="120" height="60" as="geometry" />
        </mxCell>
        <mxCell id="hHdZRXitBn-5caflbpVJ-42" value="" style="group;fillColor=#008a00;fontColor=#ffffff;strokeColor=#005700;" parent="1" vertex="1" connectable="0">
          <mxGeometry x="-240" y="475" width="2120" height="220" as="geometry" />
        </mxCell>
        <mxCell id="hHdZRXitBn-5caflbpVJ-6" value="" style="rounded=0;whiteSpace=wrap;html=1;fillColor=#008a00;strokeColor=#005700;fontColor=#ffffff;" parent="hHdZRXitBn-5caflbpVJ-42" vertex="1">
          <mxGeometry width="2120" height="220" as="geometry" />
        </mxCell>
        <mxCell id="hHdZRXitBn-5caflbpVJ-39" value="ABXP2VXN" style="rounded=0;whiteSpace=wrap;html=1;" parent="hHdZRXitBn-5caflbpVJ-42" vertex="1">
          <mxGeometry y="95.5" width="90" height="30" as="geometry" />
        </mxCell>
        <mxCell id="hHdZRXitBn-5caflbpVJ-200" value="" style="group" parent="hHdZRXitBn-5caflbpVJ-42" vertex="1" connectable="0">
          <mxGeometry x="855" y="130.5" width="80" height="80" as="geometry" />
        </mxCell>
        <mxCell id="hHdZRXitBn-5caflbpVJ-21" value="p2r5v" style="rounded=1;whiteSpace=wrap;html=1;" parent="hHdZRXitBn-5caflbpVJ-200" vertex="1">
          <mxGeometry width="80" height="80" as="geometry" />
        </mxCell>
        <mxCell id="hHdZRXitBn-5caflbpVJ-156" value="1" style="ellipse;whiteSpace=wrap;html=1;aspect=fixed;fontFamily=Helvetica;fontSize=11;fillColor=#ffcccc;strokeColor=#36393d;" parent="hHdZRXitBn-5caflbpVJ-200" vertex="1">
          <mxGeometry y="35" width="10" height="10" as="geometry" />
        </mxCell>
        <mxCell id="hHdZRXitBn-5caflbpVJ-157" value="2" style="ellipse;whiteSpace=wrap;html=1;aspect=fixed;fontFamily=Helvetica;fontSize=11;fillColor=#cdeb8b;strokeColor=#36393d;" parent="hHdZRXitBn-5caflbpVJ-200" vertex="1">
          <mxGeometry x="35" width="10" height="10" as="geometry" />
        </mxCell>
        <mxCell id="hHdZRXitBn-5caflbpVJ-158" value="3" style="ellipse;whiteSpace=wrap;html=1;aspect=fixed;fontFamily=Helvetica;fontSize=11;fillColor=#cdeb8b;strokeColor=#36393d;" parent="hHdZRXitBn-5caflbpVJ-200" vertex="1">
          <mxGeometry x="70" y="35" width="10" height="10" as="geometry" />
        </mxCell>
        <mxCell id="hHdZRXitBn-5caflbpVJ-159" value="4" style="ellipse;whiteSpace=wrap;html=1;aspect=fixed;fontFamily=Helvetica;fontSize=11;fillColor=#ffcccc;strokeColor=#36393d;" parent="hHdZRXitBn-5caflbpVJ-200" vertex="1">
          <mxGeometry x="35" y="70" width="10" height="10" as="geometry" />
        </mxCell>
        <mxCell id="L8WDKNVMCZqGO0eqc8PA-6" value="AS65002" style="rounded=0;whiteSpace=wrap;html=1;" vertex="1" parent="hHdZRXitBn-5caflbpVJ-42">
          <mxGeometry x="120" y="80" width="120" height="60" as="geometry" />
        </mxCell>
        <mxCell id="hHdZRXitBn-5caflbpVJ-43" value="" style="group;fillColor=#0050ef;fontColor=#ffffff;strokeColor=#001DBC;" parent="1" vertex="1" connectable="0">
          <mxGeometry x="-240" y="740" width="2120" height="220" as="geometry" />
        </mxCell>
        <mxCell id="hHdZRXitBn-5caflbpVJ-7" value="" style="rounded=0;whiteSpace=wrap;html=1;fillColor=#0050ef;strokeColor=#001DBC;fontColor=#ffffff;" parent="hHdZRXitBn-5caflbpVJ-43" vertex="1">
          <mxGeometry width="2120" height="220" as="geometry" />
        </mxCell>
        <mxCell id="hHdZRXitBn-5caflbpVJ-40" value="ABXP3VXN" style="rounded=0;whiteSpace=wrap;html=1;" parent="hHdZRXitBn-5caflbpVJ-43" vertex="1">
          <mxGeometry y="95" width="90" height="30" as="geometry" />
        </mxCell>
        <mxCell id="L8WDKNVMCZqGO0eqc8PA-7" value="AS65003" style="rounded=0;whiteSpace=wrap;html=1;" vertex="1" parent="hHdZRXitBn-5caflbpVJ-43">
          <mxGeometry x="600" y="80" width="120" height="60" as="geometry" />
        </mxCell>
        <mxCell id="hHdZRXitBn-5caflbpVJ-44" value="" style="edgeStyle=orthogonalEdgeStyle;rounded=0;orthogonalLoop=1;jettySize=auto;html=1;endArrow=none;endFill=0;strokeWidth=2;" parent="1" source="hHdZRXitBn-5caflbpVJ-9" target="hHdZRXitBn-5caflbpVJ-13" edge="1">
          <mxGeometry relative="1" as="geometry" />
        </mxCell>
        <mxCell id="hHdZRXitBn-5caflbpVJ-46" value="" style="edgeStyle=orthogonalEdgeStyle;shape=connector;rounded=0;orthogonalLoop=1;jettySize=auto;html=1;labelBackgroundColor=default;strokeColor=default;strokeWidth=2;align=center;verticalAlign=middle;fontFamily=Helvetica;fontSize=11;fontColor=default;endArrow=none;endFill=0;" parent="1" source="hHdZRXitBn-5caflbpVJ-10" target="hHdZRXitBn-5caflbpVJ-11" edge="1">
          <mxGeometry relative="1" as="geometry" />
        </mxCell>
        <mxCell id="hHdZRXitBn-5caflbpVJ-47" value="" style="edgeStyle=orthogonalEdgeStyle;shape=connector;rounded=0;orthogonalLoop=1;jettySize=auto;html=1;labelBackgroundColor=default;strokeColor=default;strokeWidth=2;align=center;verticalAlign=middle;fontFamily=Helvetica;fontSize=11;fontColor=default;endArrow=none;endFill=0;" parent="1" source="hHdZRXitBn-5caflbpVJ-11" target="hHdZRXitBn-5caflbpVJ-12" edge="1">
          <mxGeometry relative="1" as="geometry" />
        </mxCell>
        <mxCell id="hHdZRXitBn-5caflbpVJ-48" value="" style="edgeStyle=orthogonalEdgeStyle;shape=connector;rounded=0;orthogonalLoop=1;jettySize=auto;html=1;labelBackgroundColor=default;strokeColor=default;strokeWidth=2;align=center;verticalAlign=middle;fontFamily=Helvetica;fontSize=11;fontColor=default;endArrow=none;endFill=0;" parent="1" source="hHdZRXitBn-5caflbpVJ-12" target="hHdZRXitBn-5caflbpVJ-16" edge="1">
          <mxGeometry relative="1" as="geometry" />
        </mxCell>
        <mxCell id="hHdZRXitBn-5caflbpVJ-51" value="" style="edgeStyle=orthogonalEdgeStyle;shape=connector;rounded=0;orthogonalLoop=1;jettySize=auto;html=1;labelBackgroundColor=default;strokeColor=default;strokeWidth=2;align=center;verticalAlign=middle;fontFamily=Helvetica;fontSize=11;fontColor=default;endArrow=none;endFill=0;" parent="1" source="hHdZRXitBn-5caflbpVJ-14" target="hHdZRXitBn-5caflbpVJ-13" edge="1">
          <mxGeometry relative="1" as="geometry" />
        </mxCell>
        <mxCell id="hHdZRXitBn-5caflbpVJ-52" value="" style="edgeStyle=orthogonalEdgeStyle;shape=connector;rounded=0;orthogonalLoop=1;jettySize=auto;html=1;labelBackgroundColor=default;strokeColor=default;strokeWidth=2;align=center;verticalAlign=middle;fontFamily=Helvetica;fontSize=11;fontColor=default;endArrow=none;endFill=0;" parent="1" source="hHdZRXitBn-5caflbpVJ-14" target="hHdZRXitBn-5caflbpVJ-10" edge="1">
          <mxGeometry relative="1" as="geometry" />
        </mxCell>
        <mxCell id="hHdZRXitBn-5caflbpVJ-50" value="" style="edgeStyle=orthogonalEdgeStyle;shape=connector;rounded=0;orthogonalLoop=1;jettySize=auto;html=1;labelBackgroundColor=default;strokeColor=default;strokeWidth=2;align=center;verticalAlign=middle;fontFamily=Helvetica;fontSize=11;fontColor=default;endArrow=none;endFill=0;" parent="1" source="hHdZRXitBn-5caflbpVJ-15" target="hHdZRXitBn-5caflbpVJ-14" edge="1">
          <mxGeometry relative="1" as="geometry" />
        </mxCell>
        <mxCell id="hHdZRXitBn-5caflbpVJ-53" value="" style="edgeStyle=orthogonalEdgeStyle;shape=connector;rounded=0;orthogonalLoop=1;jettySize=auto;html=1;labelBackgroundColor=default;strokeColor=default;strokeWidth=2;align=center;verticalAlign=middle;fontFamily=Helvetica;fontSize=11;fontColor=default;endArrow=none;endFill=0;" parent="1" source="hHdZRXitBn-5caflbpVJ-15" target="hHdZRXitBn-5caflbpVJ-11" edge="1">
          <mxGeometry relative="1" as="geometry" />
        </mxCell>
        <mxCell id="hHdZRXitBn-5caflbpVJ-49" value="" style="edgeStyle=orthogonalEdgeStyle;shape=connector;rounded=0;orthogonalLoop=1;jettySize=auto;html=1;labelBackgroundColor=default;strokeColor=default;strokeWidth=2;align=center;verticalAlign=middle;fontFamily=Helvetica;fontSize=11;fontColor=default;endArrow=none;endFill=0;" parent="1" source="hHdZRXitBn-5caflbpVJ-16" target="hHdZRXitBn-5caflbpVJ-15" edge="1">
          <mxGeometry relative="1" as="geometry" />
        </mxCell>
        <mxCell id="hHdZRXitBn-5caflbpVJ-64" value="" style="edgeStyle=orthogonalEdgeStyle;shape=connector;rounded=0;orthogonalLoop=1;jettySize=auto;html=1;labelBackgroundColor=default;strokeColor=default;strokeWidth=2;align=center;verticalAlign=middle;fontFamily=Helvetica;fontSize=11;fontColor=default;endArrow=none;endFill=0;" parent="1" source="hHdZRXitBn-5caflbpVJ-25" target="hHdZRXitBn-5caflbpVJ-26" edge="1">
          <mxGeometry relative="1" as="geometry" />
        </mxCell>
        <mxCell id="hHdZRXitBn-5caflbpVJ-65" value="" style="edgeStyle=orthogonalEdgeStyle;shape=connector;rounded=0;orthogonalLoop=1;jettySize=auto;html=1;labelBackgroundColor=default;strokeColor=default;strokeWidth=2;align=center;verticalAlign=middle;fontFamily=Helvetica;fontSize=11;fontColor=default;endArrow=none;endFill=0;" parent="1" source="hHdZRXitBn-5caflbpVJ-26" target="hHdZRXitBn-5caflbpVJ-27" edge="1">
          <mxGeometry relative="1" as="geometry" />
        </mxCell>
        <mxCell id="hHdZRXitBn-5caflbpVJ-66" value="" style="edgeStyle=orthogonalEdgeStyle;shape=connector;rounded=0;orthogonalLoop=1;jettySize=auto;html=1;labelBackgroundColor=default;strokeColor=default;strokeWidth=2;align=center;verticalAlign=middle;fontFamily=Helvetica;fontSize=11;fontColor=default;endArrow=none;endFill=0;" parent="1" source="hHdZRXitBn-5caflbpVJ-27" target="hHdZRXitBn-5caflbpVJ-28" edge="1">
          <mxGeometry relative="1" as="geometry" />
        </mxCell>
        <mxCell id="hHdZRXitBn-5caflbpVJ-67" value="" style="edgeStyle=orthogonalEdgeStyle;shape=connector;rounded=0;orthogonalLoop=1;jettySize=auto;html=1;labelBackgroundColor=default;strokeColor=default;strokeWidth=2;align=center;verticalAlign=middle;fontFamily=Helvetica;fontSize=11;fontColor=default;endArrow=none;endFill=0;" parent="1" source="hHdZRXitBn-5caflbpVJ-28" target="hHdZRXitBn-5caflbpVJ-32" edge="1">
          <mxGeometry relative="1" as="geometry" />
        </mxCell>
        <mxCell id="hHdZRXitBn-5caflbpVJ-70" value="" style="edgeStyle=orthogonalEdgeStyle;shape=connector;rounded=0;orthogonalLoop=1;jettySize=auto;html=1;labelBackgroundColor=default;strokeColor=default;strokeWidth=2;align=center;verticalAlign=middle;fontFamily=Helvetica;fontSize=11;fontColor=default;endArrow=none;endFill=0;" parent="1" source="hHdZRXitBn-5caflbpVJ-30" target="hHdZRXitBn-5caflbpVJ-29" edge="1">
          <mxGeometry relative="1" as="geometry" />
        </mxCell>
        <mxCell id="hHdZRXitBn-5caflbpVJ-72" value="" style="edgeStyle=orthogonalEdgeStyle;shape=connector;rounded=0;orthogonalLoop=1;jettySize=auto;html=1;labelBackgroundColor=default;strokeColor=default;strokeWidth=2;align=center;verticalAlign=middle;fontFamily=Helvetica;fontSize=11;fontColor=default;endArrow=none;endFill=0;" parent="1" source="hHdZRXitBn-5caflbpVJ-30" target="hHdZRXitBn-5caflbpVJ-26" edge="1">
          <mxGeometry relative="1" as="geometry" />
        </mxCell>
        <mxCell id="hHdZRXitBn-5caflbpVJ-69" value="" style="edgeStyle=orthogonalEdgeStyle;shape=connector;rounded=0;orthogonalLoop=1;jettySize=auto;html=1;labelBackgroundColor=default;strokeColor=default;strokeWidth=2;align=center;verticalAlign=middle;fontFamily=Helvetica;fontSize=11;fontColor=default;endArrow=none;endFill=0;" parent="1" source="hHdZRXitBn-5caflbpVJ-31" target="hHdZRXitBn-5caflbpVJ-30" edge="1">
          <mxGeometry relative="1" as="geometry" />
        </mxCell>
        <mxCell id="hHdZRXitBn-5caflbpVJ-73" value="" style="edgeStyle=orthogonalEdgeStyle;shape=connector;rounded=0;orthogonalLoop=1;jettySize=auto;html=1;labelBackgroundColor=default;strokeColor=default;strokeWidth=2;align=center;verticalAlign=middle;fontFamily=Helvetica;fontSize=11;fontColor=default;endArrow=none;endFill=0;" parent="1" source="hHdZRXitBn-5caflbpVJ-31" target="hHdZRXitBn-5caflbpVJ-27" edge="1">
          <mxGeometry relative="1" as="geometry" />
        </mxCell>
        <mxCell id="hHdZRXitBn-5caflbpVJ-68" value="" style="edgeStyle=orthogonalEdgeStyle;shape=connector;rounded=0;orthogonalLoop=1;jettySize=auto;html=1;labelBackgroundColor=default;strokeColor=default;strokeWidth=2;align=center;verticalAlign=middle;fontFamily=Helvetica;fontSize=11;fontColor=default;endArrow=none;endFill=0;" parent="1" source="hHdZRXitBn-5caflbpVJ-32" target="hHdZRXitBn-5caflbpVJ-31" edge="1">
          <mxGeometry relative="1" as="geometry" />
        </mxCell>
        <mxCell id="hHdZRXitBn-5caflbpVJ-180" value="" style="group" parent="1" vertex="1" connectable="0">
          <mxGeometry x="1665" y="220" width="80" height="80" as="geometry" />
        </mxCell>
        <mxCell id="hHdZRXitBn-5caflbpVJ-28" value="p3r4v" style="rounded=1;whiteSpace=wrap;html=1;" parent="hHdZRXitBn-5caflbpVJ-180" vertex="1">
          <mxGeometry width="80" height="80" as="geometry" />
        </mxCell>
        <mxCell id="hHdZRXitBn-5caflbpVJ-128" value="1" style="ellipse;whiteSpace=wrap;html=1;aspect=fixed;fontFamily=Helvetica;fontSize=11;fillColor=#cdeb8b;strokeColor=#36393d;" parent="hHdZRXitBn-5caflbpVJ-180" vertex="1">
          <mxGeometry y="35" width="10" height="10" as="geometry" />
        </mxCell>
        <mxCell id="hHdZRXitBn-5caflbpVJ-129" value="2" style="ellipse;whiteSpace=wrap;html=1;aspect=fixed;fontFamily=Helvetica;fontSize=11;fillColor=#ffcccc;strokeColor=#36393d;" parent="hHdZRXitBn-5caflbpVJ-180" vertex="1">
          <mxGeometry x="35" width="10" height="10" as="geometry" />
        </mxCell>
        <mxCell id="hHdZRXitBn-5caflbpVJ-130" value="3" style="ellipse;whiteSpace=wrap;html=1;aspect=fixed;fontFamily=Helvetica;fontSize=11;fillColor=#ffcccc;strokeColor=#36393d;" parent="hHdZRXitBn-5caflbpVJ-180" vertex="1">
          <mxGeometry x="70" y="35" width="10" height="10" as="geometry" />
        </mxCell>
        <mxCell id="hHdZRXitBn-5caflbpVJ-131" value="4" style="ellipse;whiteSpace=wrap;html=1;aspect=fixed;fontFamily=Helvetica;fontSize=11;fillColor=#cdeb8b;strokeColor=#36393d;" parent="hHdZRXitBn-5caflbpVJ-180" vertex="1">
          <mxGeometry x="35" y="70" width="10" height="10" as="geometry" />
        </mxCell>
        <mxCell id="hHdZRXitBn-5caflbpVJ-181" value="" style="group" parent="1" vertex="1" connectable="0">
          <mxGeometry x="1555" y="220" width="80" height="80" as="geometry" />
        </mxCell>
        <mxCell id="hHdZRXitBn-5caflbpVJ-27" value="p3r3v" style="rounded=1;whiteSpace=wrap;html=1;" parent="hHdZRXitBn-5caflbpVJ-181" vertex="1">
          <mxGeometry width="80" height="80" as="geometry" />
        </mxCell>
        <mxCell id="hHdZRXitBn-5caflbpVJ-92" value="1" style="ellipse;whiteSpace=wrap;html=1;aspect=fixed;fontFamily=Helvetica;fontSize=11;fillColor=#cdeb8b;strokeColor=#36393d;" parent="hHdZRXitBn-5caflbpVJ-181" vertex="1">
          <mxGeometry y="35" width="10" height="10" as="geometry" />
        </mxCell>
        <mxCell id="hHdZRXitBn-5caflbpVJ-93" value="2" style="ellipse;whiteSpace=wrap;html=1;aspect=fixed;fontFamily=Helvetica;fontSize=11;fillColor=#ffcccc;strokeColor=#36393d;" parent="hHdZRXitBn-5caflbpVJ-181" vertex="1">
          <mxGeometry x="35" width="10" height="10" as="geometry" />
        </mxCell>
        <mxCell id="hHdZRXitBn-5caflbpVJ-94" value="3" style="ellipse;whiteSpace=wrap;html=1;aspect=fixed;fontFamily=Helvetica;fontSize=11;fillColor=#cdeb8b;strokeColor=#36393d;" parent="hHdZRXitBn-5caflbpVJ-181" vertex="1">
          <mxGeometry x="70" y="35" width="10" height="10" as="geometry" />
        </mxCell>
        <mxCell id="hHdZRXitBn-5caflbpVJ-95" value="4" style="ellipse;whiteSpace=wrap;html=1;aspect=fixed;fontFamily=Helvetica;fontSize=11;fillColor=#cdeb8b;strokeColor=#36393d;" parent="hHdZRXitBn-5caflbpVJ-181" vertex="1">
          <mxGeometry x="35" y="70" width="10" height="10" as="geometry" />
        </mxCell>
        <mxCell id="hHdZRXitBn-5caflbpVJ-182" value="" style="group" parent="1" vertex="1" connectable="0">
          <mxGeometry x="1445" y="220" width="80" height="80" as="geometry" />
        </mxCell>
        <mxCell id="hHdZRXitBn-5caflbpVJ-26" value="p3r2v" style="rounded=1;whiteSpace=wrap;html=1;" parent="hHdZRXitBn-5caflbpVJ-182" vertex="1">
          <mxGeometry width="80" height="80" as="geometry" />
        </mxCell>
        <mxCell id="hHdZRXitBn-5caflbpVJ-82" value="1" style="ellipse;whiteSpace=wrap;html=1;aspect=fixed;fontFamily=Helvetica;fontSize=11;fillColor=#cdeb8b;strokeColor=#36393d;" parent="hHdZRXitBn-5caflbpVJ-182" vertex="1">
          <mxGeometry y="35" width="10" height="10" as="geometry" />
        </mxCell>
        <mxCell id="hHdZRXitBn-5caflbpVJ-83" value="2" style="ellipse;whiteSpace=wrap;html=1;aspect=fixed;fontFamily=Helvetica;fontSize=11;fillColor=#ffcccc;strokeColor=#36393d;" parent="hHdZRXitBn-5caflbpVJ-182" vertex="1">
          <mxGeometry x="35" width="10" height="10" as="geometry" />
        </mxCell>
        <mxCell id="hHdZRXitBn-5caflbpVJ-84" value="3" style="ellipse;whiteSpace=wrap;html=1;aspect=fixed;fontFamily=Helvetica;fontSize=11;fillColor=#cdeb8b;strokeColor=#36393d;" parent="hHdZRXitBn-5caflbpVJ-182" vertex="1">
          <mxGeometry x="70" y="35" width="10" height="10" as="geometry" />
        </mxCell>
        <mxCell id="hHdZRXitBn-5caflbpVJ-85" value="4" style="ellipse;whiteSpace=wrap;html=1;aspect=fixed;fontFamily=Helvetica;fontSize=11;fillColor=#cdeb8b;strokeColor=#36393d;" parent="hHdZRXitBn-5caflbpVJ-182" vertex="1">
          <mxGeometry x="35" y="70" width="10" height="10" as="geometry" />
        </mxCell>
        <mxCell id="hHdZRXitBn-5caflbpVJ-185" value="" style="group" parent="1" vertex="1" connectable="0">
          <mxGeometry x="1445" y="340" width="80" height="80" as="geometry" />
        </mxCell>
        <mxCell id="hHdZRXitBn-5caflbpVJ-30" value="p3r6v" style="rounded=1;whiteSpace=wrap;html=1;" parent="hHdZRXitBn-5caflbpVJ-185" vertex="1">
          <mxGeometry width="80" height="80" as="geometry" />
        </mxCell>
        <mxCell id="hHdZRXitBn-5caflbpVJ-140" value="1" style="ellipse;whiteSpace=wrap;html=1;aspect=fixed;fontFamily=Helvetica;fontSize=11;fillColor=#cdeb8b;strokeColor=#36393d;" parent="hHdZRXitBn-5caflbpVJ-185" vertex="1">
          <mxGeometry y="35" width="10" height="10" as="geometry" />
        </mxCell>
        <mxCell id="hHdZRXitBn-5caflbpVJ-141" value="2" style="ellipse;whiteSpace=wrap;html=1;aspect=fixed;fontFamily=Helvetica;fontSize=11;fillColor=#cdeb8b;strokeColor=#36393d;" parent="hHdZRXitBn-5caflbpVJ-185" vertex="1">
          <mxGeometry x="35" width="10" height="10" as="geometry" />
        </mxCell>
        <mxCell id="hHdZRXitBn-5caflbpVJ-142" value="3" style="ellipse;whiteSpace=wrap;html=1;aspect=fixed;fontFamily=Helvetica;fontSize=11;fillColor=#cdeb8b;strokeColor=#36393d;" parent="hHdZRXitBn-5caflbpVJ-185" vertex="1">
          <mxGeometry x="70" y="35" width="10" height="10" as="geometry" />
        </mxCell>
        <mxCell id="hHdZRXitBn-5caflbpVJ-143" value="4" style="ellipse;whiteSpace=wrap;html=1;aspect=fixed;fontFamily=Helvetica;fontSize=11;fillColor=#ffcccc;strokeColor=#36393d;" parent="hHdZRXitBn-5caflbpVJ-185" vertex="1">
          <mxGeometry x="35" y="70" width="10" height="10" as="geometry" />
        </mxCell>
        <mxCell id="hHdZRXitBn-5caflbpVJ-186" value="" style="group" parent="1" vertex="1" connectable="0">
          <mxGeometry x="1555" y="340" width="80" height="80" as="geometry" />
        </mxCell>
        <mxCell id="hHdZRXitBn-5caflbpVJ-31" value="p3r7v" style="rounded=1;whiteSpace=wrap;html=1;" parent="hHdZRXitBn-5caflbpVJ-186" vertex="1">
          <mxGeometry width="80" height="80" as="geometry" />
        </mxCell>
        <mxCell id="hHdZRXitBn-5caflbpVJ-136" value="1" style="ellipse;whiteSpace=wrap;html=1;aspect=fixed;fontFamily=Helvetica;fontSize=11;fillColor=#cdeb8b;strokeColor=#36393d;" parent="hHdZRXitBn-5caflbpVJ-186" vertex="1">
          <mxGeometry y="35" width="10" height="10" as="geometry" />
        </mxCell>
        <mxCell id="hHdZRXitBn-5caflbpVJ-137" value="2" style="ellipse;whiteSpace=wrap;html=1;aspect=fixed;fontFamily=Helvetica;fontSize=11;fillColor=#cdeb8b;strokeColor=#36393d;" parent="hHdZRXitBn-5caflbpVJ-186" vertex="1">
          <mxGeometry x="35" width="10" height="10" as="geometry" />
        </mxCell>
        <mxCell id="hHdZRXitBn-5caflbpVJ-138" value="3" style="ellipse;whiteSpace=wrap;html=1;aspect=fixed;fontFamily=Helvetica;fontSize=11;fillColor=#cdeb8b;strokeColor=#36393d;" parent="hHdZRXitBn-5caflbpVJ-186" vertex="1">
          <mxGeometry x="70" y="35" width="10" height="10" as="geometry" />
        </mxCell>
        <mxCell id="hHdZRXitBn-5caflbpVJ-139" value="4" style="ellipse;whiteSpace=wrap;html=1;aspect=fixed;fontFamily=Helvetica;fontSize=11;fillColor=#ffcccc;strokeColor=#36393d;" parent="hHdZRXitBn-5caflbpVJ-186" vertex="1">
          <mxGeometry x="35" y="70" width="10" height="10" as="geometry" />
        </mxCell>
        <mxCell id="hHdZRXitBn-5caflbpVJ-187" value="" style="group" parent="1" vertex="1" connectable="0">
          <mxGeometry x="1665" y="340" width="80" height="80" as="geometry" />
        </mxCell>
        <mxCell id="hHdZRXitBn-5caflbpVJ-32" value="p3r8v" style="rounded=1;whiteSpace=wrap;html=1;" parent="hHdZRXitBn-5caflbpVJ-187" vertex="1">
          <mxGeometry width="80" height="80" as="geometry" />
        </mxCell>
        <mxCell id="hHdZRXitBn-5caflbpVJ-132" value="2" style="ellipse;whiteSpace=wrap;html=1;aspect=fixed;fontFamily=Helvetica;fontSize=11;fillColor=#cdeb8b;strokeColor=#36393d;" parent="hHdZRXitBn-5caflbpVJ-187" vertex="1">
          <mxGeometry x="35" width="10" height="10" as="geometry" />
        </mxCell>
        <mxCell id="hHdZRXitBn-5caflbpVJ-133" value="1" style="ellipse;whiteSpace=wrap;html=1;aspect=fixed;fontFamily=Helvetica;fontSize=11;fillColor=#cdeb8b;strokeColor=#36393d;" parent="hHdZRXitBn-5caflbpVJ-187" vertex="1">
          <mxGeometry y="35" width="10" height="10" as="geometry" />
        </mxCell>
        <mxCell id="hHdZRXitBn-5caflbpVJ-134" value="3" style="ellipse;whiteSpace=wrap;html=1;aspect=fixed;fontFamily=Helvetica;fontSize=11;fillColor=#cdeb8b;strokeColor=#36393d;" parent="hHdZRXitBn-5caflbpVJ-187" vertex="1">
          <mxGeometry x="70" y="35" width="10" height="10" as="geometry" />
        </mxCell>
        <mxCell id="hHdZRXitBn-5caflbpVJ-135" value="4" style="ellipse;whiteSpace=wrap;html=1;aspect=fixed;fontFamily=Helvetica;fontSize=11;fillColor=#ffcccc;strokeColor=#36393d;" parent="hHdZRXitBn-5caflbpVJ-187" vertex="1">
          <mxGeometry x="35" y="70" width="10" height="10" as="geometry" />
        </mxCell>
        <mxCell id="hHdZRXitBn-5caflbpVJ-188" value="" style="group" parent="1" vertex="1" connectable="0">
          <mxGeometry x="945" y="485" width="80" height="80" as="geometry" />
        </mxCell>
        <mxCell id="hHdZRXitBn-5caflbpVJ-20" value="p2r4v" style="rounded=1;whiteSpace=wrap;html=1;" parent="hHdZRXitBn-5caflbpVJ-188" vertex="1">
          <mxGeometry width="80" height="80" as="geometry" />
        </mxCell>
        <mxCell id="hHdZRXitBn-5caflbpVJ-120" value="1" style="ellipse;whiteSpace=wrap;html=1;aspect=fixed;fontFamily=Helvetica;fontSize=11;fillColor=#cdeb8b;strokeColor=#36393d;" parent="hHdZRXitBn-5caflbpVJ-188" vertex="1">
          <mxGeometry y="35" width="10" height="10" as="geometry" />
        </mxCell>
        <mxCell id="hHdZRXitBn-5caflbpVJ-121" value="2" style="ellipse;whiteSpace=wrap;html=1;aspect=fixed;fontFamily=Helvetica;fontSize=11;fillColor=#ffcccc;strokeColor=#36393d;" parent="hHdZRXitBn-5caflbpVJ-188" vertex="1">
          <mxGeometry x="35" width="10" height="10" as="geometry" />
        </mxCell>
        <mxCell id="hHdZRXitBn-5caflbpVJ-122" value="3" style="ellipse;whiteSpace=wrap;html=1;aspect=fixed;fontFamily=Helvetica;fontSize=11;fillColor=#ffcccc;strokeColor=#36393d;" parent="hHdZRXitBn-5caflbpVJ-188" vertex="1">
          <mxGeometry x="70" y="35" width="10" height="10" as="geometry" />
        </mxCell>
        <mxCell id="hHdZRXitBn-5caflbpVJ-123" value="4" style="ellipse;whiteSpace=wrap;html=1;aspect=fixed;fontFamily=Helvetica;fontSize=11;fillColor=#cdeb8b;strokeColor=#36393d;" parent="hHdZRXitBn-5caflbpVJ-188" vertex="1">
          <mxGeometry x="35" y="70" width="10" height="10" as="geometry" />
        </mxCell>
        <mxCell id="hHdZRXitBn-5caflbpVJ-189" value="" style="group" parent="1" vertex="1" connectable="0">
          <mxGeometry x="945" y="605" width="80" height="80" as="geometry" />
        </mxCell>
        <mxCell id="hHdZRXitBn-5caflbpVJ-24" value="p2r8v" style="rounded=1;whiteSpace=wrap;html=1;" parent="hHdZRXitBn-5caflbpVJ-189" vertex="1">
          <mxGeometry width="80" height="80" as="geometry" />
        </mxCell>
        <mxCell id="hHdZRXitBn-5caflbpVJ-144" value="1" style="ellipse;whiteSpace=wrap;html=1;aspect=fixed;fontFamily=Helvetica;fontSize=11;fillColor=#cdeb8b;strokeColor=#36393d;" parent="hHdZRXitBn-5caflbpVJ-189" vertex="1">
          <mxGeometry y="35" width="10" height="10" as="geometry" />
        </mxCell>
        <mxCell id="hHdZRXitBn-5caflbpVJ-145" value="2" style="ellipse;whiteSpace=wrap;html=1;aspect=fixed;fontFamily=Helvetica;fontSize=11;fillColor=#cdeb8b;strokeColor=#36393d;" parent="hHdZRXitBn-5caflbpVJ-189" vertex="1">
          <mxGeometry x="35" width="10" height="10" as="geometry" />
        </mxCell>
        <mxCell id="hHdZRXitBn-5caflbpVJ-146" value="3" style="ellipse;whiteSpace=wrap;html=1;aspect=fixed;fontFamily=Helvetica;fontSize=11;fillColor=#cdeb8b;strokeColor=#36393d;" parent="hHdZRXitBn-5caflbpVJ-189" vertex="1">
          <mxGeometry x="70" y="35" width="10" height="10" as="geometry" />
        </mxCell>
        <mxCell id="hHdZRXitBn-5caflbpVJ-147" value="4" style="ellipse;whiteSpace=wrap;html=1;aspect=fixed;fontFamily=Helvetica;fontSize=11;fillColor=#ffcccc;strokeColor=#36393d;" parent="hHdZRXitBn-5caflbpVJ-189" vertex="1">
          <mxGeometry x="35" y="70" width="10" height="10" as="geometry" />
        </mxCell>
        <mxCell id="hHdZRXitBn-5caflbpVJ-190" value="" style="group" parent="1" vertex="1" connectable="0">
          <mxGeometry x="835" y="605" width="80" height="80" as="geometry" />
        </mxCell>
        <mxCell id="hHdZRXitBn-5caflbpVJ-23" value="p2r7v" style="rounded=1;whiteSpace=wrap;html=1;" parent="hHdZRXitBn-5caflbpVJ-190" vertex="1">
          <mxGeometry width="80" height="80" as="geometry" />
        </mxCell>
        <mxCell id="hHdZRXitBn-5caflbpVJ-148" value="1" style="ellipse;whiteSpace=wrap;html=1;aspect=fixed;fontFamily=Helvetica;fontSize=11;fillColor=#cdeb8b;strokeColor=#36393d;" parent="hHdZRXitBn-5caflbpVJ-190" vertex="1">
          <mxGeometry y="35" width="10" height="10" as="geometry" />
        </mxCell>
        <mxCell id="hHdZRXitBn-5caflbpVJ-149" value="2" style="ellipse;whiteSpace=wrap;html=1;aspect=fixed;fontFamily=Helvetica;fontSize=11;fillColor=#cdeb8b;strokeColor=#36393d;" parent="hHdZRXitBn-5caflbpVJ-190" vertex="1">
          <mxGeometry x="35" width="10" height="10" as="geometry" />
        </mxCell>
        <mxCell id="hHdZRXitBn-5caflbpVJ-150" value="3" style="ellipse;whiteSpace=wrap;html=1;aspect=fixed;fontFamily=Helvetica;fontSize=11;fillColor=#cdeb8b;strokeColor=#36393d;" parent="hHdZRXitBn-5caflbpVJ-190" vertex="1">
          <mxGeometry x="70" y="35" width="10" height="10" as="geometry" />
        </mxCell>
        <mxCell id="hHdZRXitBn-5caflbpVJ-151" value="4" style="ellipse;whiteSpace=wrap;html=1;aspect=fixed;fontFamily=Helvetica;fontSize=11;fillColor=#ffcccc;strokeColor=#36393d;" parent="hHdZRXitBn-5caflbpVJ-190" vertex="1">
          <mxGeometry x="35" y="70" width="10" height="10" as="geometry" />
        </mxCell>
        <mxCell id="hHdZRXitBn-5caflbpVJ-197" value="" style="group" parent="1" vertex="1" connectable="0">
          <mxGeometry x="835" y="485" width="80" height="80" as="geometry" />
        </mxCell>
        <mxCell id="hHdZRXitBn-5caflbpVJ-19" value="p2r3v" style="rounded=1;whiteSpace=wrap;html=1;" parent="hHdZRXitBn-5caflbpVJ-197" vertex="1">
          <mxGeometry width="80" height="80" as="geometry" />
        </mxCell>
        <mxCell id="hHdZRXitBn-5caflbpVJ-96" value="1" style="ellipse;whiteSpace=wrap;html=1;aspect=fixed;fontFamily=Helvetica;fontSize=11;fillColor=#cdeb8b;strokeColor=#36393d;" parent="hHdZRXitBn-5caflbpVJ-197" vertex="1">
          <mxGeometry y="35" width="10" height="10" as="geometry" />
        </mxCell>
        <mxCell id="hHdZRXitBn-5caflbpVJ-97" value="2" style="ellipse;whiteSpace=wrap;html=1;aspect=fixed;fontFamily=Helvetica;fontSize=11;fillColor=#ffcccc;strokeColor=#36393d;" parent="hHdZRXitBn-5caflbpVJ-197" vertex="1">
          <mxGeometry x="35" width="10" height="10" as="geometry" />
        </mxCell>
        <mxCell id="hHdZRXitBn-5caflbpVJ-98" value="3" style="ellipse;whiteSpace=wrap;html=1;aspect=fixed;fontFamily=Helvetica;fontSize=11;fillColor=#cdeb8b;strokeColor=#36393d;" parent="hHdZRXitBn-5caflbpVJ-197" vertex="1">
          <mxGeometry x="70" y="35" width="10" height="10" as="geometry" />
        </mxCell>
        <mxCell id="hHdZRXitBn-5caflbpVJ-99" value="4" style="ellipse;whiteSpace=wrap;html=1;aspect=fixed;fontFamily=Helvetica;fontSize=11;fillColor=#cdeb8b;strokeColor=#36393d;" parent="hHdZRXitBn-5caflbpVJ-197" vertex="1">
          <mxGeometry x="35" y="70" width="10" height="10" as="geometry" />
        </mxCell>
        <mxCell id="hHdZRXitBn-5caflbpVJ-198" value="" style="group" parent="1" vertex="1" connectable="0">
          <mxGeometry x="725" y="485" width="80" height="80" as="geometry" />
        </mxCell>
        <mxCell id="hHdZRXitBn-5caflbpVJ-18" value="p2r2v" style="rounded=1;whiteSpace=wrap;html=1;" parent="hHdZRXitBn-5caflbpVJ-198" vertex="1">
          <mxGeometry width="80" height="80" as="geometry" />
        </mxCell>
        <mxCell id="hHdZRXitBn-5caflbpVJ-100" value="1" style="ellipse;whiteSpace=wrap;html=1;aspect=fixed;fontFamily=Helvetica;fontSize=11;fillColor=#cdeb8b;strokeColor=#36393d;" parent="hHdZRXitBn-5caflbpVJ-198" vertex="1">
          <mxGeometry y="35" width="10" height="10" as="geometry" />
        </mxCell>
        <mxCell id="hHdZRXitBn-5caflbpVJ-101" value="2" style="ellipse;whiteSpace=wrap;html=1;aspect=fixed;fontFamily=Helvetica;fontSize=11;fillColor=#ffcccc;strokeColor=#36393d;" parent="hHdZRXitBn-5caflbpVJ-198" vertex="1">
          <mxGeometry x="35" width="10" height="10" as="geometry" />
        </mxCell>
        <mxCell id="hHdZRXitBn-5caflbpVJ-102" value="3" style="ellipse;whiteSpace=wrap;html=1;aspect=fixed;fontFamily=Helvetica;fontSize=11;fillColor=#cdeb8b;strokeColor=#36393d;" parent="hHdZRXitBn-5caflbpVJ-198" vertex="1">
          <mxGeometry x="70" y="35" width="10" height="10" as="geometry" />
        </mxCell>
        <mxCell id="hHdZRXitBn-5caflbpVJ-103" value="4" style="ellipse;whiteSpace=wrap;html=1;aspect=fixed;fontFamily=Helvetica;fontSize=11;fillColor=#cdeb8b;strokeColor=#36393d;" parent="hHdZRXitBn-5caflbpVJ-198" vertex="1">
          <mxGeometry x="35" y="70" width="10" height="10" as="geometry" />
        </mxCell>
        <mxCell id="hHdZRXitBn-5caflbpVJ-199" value="" style="group" parent="1" vertex="1" connectable="0">
          <mxGeometry x="725" y="605" width="80" height="80" as="geometry" />
        </mxCell>
        <mxCell id="hHdZRXitBn-5caflbpVJ-22" value="p2r6v" style="rounded=1;whiteSpace=wrap;html=1;" parent="hHdZRXitBn-5caflbpVJ-199" vertex="1">
          <mxGeometry width="80" height="80" as="geometry" />
        </mxCell>
        <mxCell id="hHdZRXitBn-5caflbpVJ-152" value="1" style="ellipse;whiteSpace=wrap;html=1;aspect=fixed;fontFamily=Helvetica;fontSize=11;fillColor=#cdeb8b;strokeColor=#36393d;" parent="hHdZRXitBn-5caflbpVJ-199" vertex="1">
          <mxGeometry y="35" width="10" height="10" as="geometry" />
        </mxCell>
        <mxCell id="hHdZRXitBn-5caflbpVJ-153" value="2" style="ellipse;whiteSpace=wrap;html=1;aspect=fixed;fontFamily=Helvetica;fontSize=11;fillColor=#cdeb8b;strokeColor=#36393d;" parent="hHdZRXitBn-5caflbpVJ-199" vertex="1">
          <mxGeometry x="35" width="10" height="10" as="geometry" />
        </mxCell>
        <mxCell id="hHdZRXitBn-5caflbpVJ-154" value="3" style="ellipse;whiteSpace=wrap;html=1;aspect=fixed;fontFamily=Helvetica;fontSize=11;fillColor=#cdeb8b;strokeColor=#36393d;" parent="hHdZRXitBn-5caflbpVJ-199" vertex="1">
          <mxGeometry x="70" y="35" width="10" height="10" as="geometry" />
        </mxCell>
        <mxCell id="hHdZRXitBn-5caflbpVJ-155" value="4" style="ellipse;whiteSpace=wrap;html=1;aspect=fixed;fontFamily=Helvetica;fontSize=11;fillColor=#ffcccc;strokeColor=#36393d;" parent="hHdZRXitBn-5caflbpVJ-199" vertex="1">
          <mxGeometry x="35" y="70" width="10" height="10" as="geometry" />
        </mxCell>
        <mxCell id="hHdZRXitBn-5caflbpVJ-201" value="" style="group" parent="1" vertex="1" connectable="0">
          <mxGeometry x="615" y="485" width="80" height="80" as="geometry" />
        </mxCell>
        <mxCell id="hHdZRXitBn-5caflbpVJ-17" value="p2r1v" style="rounded=1;whiteSpace=wrap;html=1;" parent="hHdZRXitBn-5caflbpVJ-201" vertex="1">
          <mxGeometry width="80" height="80" as="geometry" />
        </mxCell>
        <mxCell id="hHdZRXitBn-5caflbpVJ-112" value="1" style="ellipse;whiteSpace=wrap;html=1;aspect=fixed;fontFamily=Helvetica;fontSize=11;fillColor=#cdeb8b;strokeColor=#36393d;" parent="hHdZRXitBn-5caflbpVJ-201" vertex="1">
          <mxGeometry y="35" width="10" height="10" as="geometry" />
        </mxCell>
        <mxCell id="hHdZRXitBn-5caflbpVJ-113" value="2" style="ellipse;whiteSpace=wrap;html=1;aspect=fixed;fontFamily=Helvetica;fontSize=11;fillColor=#ffcccc;strokeColor=#36393d;" parent="hHdZRXitBn-5caflbpVJ-201" vertex="1">
          <mxGeometry x="35" width="10" height="10" as="geometry" />
        </mxCell>
        <mxCell id="hHdZRXitBn-5caflbpVJ-114" value="3" style="ellipse;whiteSpace=wrap;html=1;aspect=fixed;fontFamily=Helvetica;fontSize=11;fillColor=#cdeb8b;strokeColor=#36393d;" parent="hHdZRXitBn-5caflbpVJ-201" vertex="1">
          <mxGeometry x="70" y="35" width="10" height="10" as="geometry" />
        </mxCell>
        <mxCell id="hHdZRXitBn-5caflbpVJ-115" value="4" style="ellipse;whiteSpace=wrap;html=1;aspect=fixed;fontFamily=Helvetica;fontSize=11;fillColor=#cdeb8b;strokeColor=#36393d;" parent="hHdZRXitBn-5caflbpVJ-201" vertex="1">
          <mxGeometry x="35" y="70" width="10" height="10" as="geometry" />
        </mxCell>
        <mxCell id="hHdZRXitBn-5caflbpVJ-202" value="" style="group" parent="1" vertex="1" connectable="0">
          <mxGeometry x="225" y="750" width="80" height="80" as="geometry" />
        </mxCell>
        <mxCell id="hHdZRXitBn-5caflbpVJ-12" value="p1r4v" style="rounded=1;whiteSpace=wrap;html=1;" parent="hHdZRXitBn-5caflbpVJ-202" vertex="1">
          <mxGeometry width="80" height="80" as="geometry" />
        </mxCell>
        <mxCell id="hHdZRXitBn-5caflbpVJ-124" value="1" style="ellipse;whiteSpace=wrap;html=1;aspect=fixed;fontFamily=Helvetica;fontSize=11;fillColor=#cdeb8b;strokeColor=#36393d;" parent="hHdZRXitBn-5caflbpVJ-202" vertex="1">
          <mxGeometry y="35" width="10" height="10" as="geometry" />
        </mxCell>
        <mxCell id="hHdZRXitBn-5caflbpVJ-125" value="2" style="ellipse;whiteSpace=wrap;html=1;aspect=fixed;fontFamily=Helvetica;fontSize=11;fillColor=#ffcccc;strokeColor=#36393d;" parent="hHdZRXitBn-5caflbpVJ-202" vertex="1">
          <mxGeometry x="35" width="10" height="10" as="geometry" />
        </mxCell>
        <mxCell id="hHdZRXitBn-5caflbpVJ-126" value="3" style="ellipse;whiteSpace=wrap;html=1;aspect=fixed;fontFamily=Helvetica;fontSize=11;fillColor=#ffcccc;strokeColor=#36393d;" parent="hHdZRXitBn-5caflbpVJ-202" vertex="1">
          <mxGeometry x="70" y="35" width="10" height="10" as="geometry" />
        </mxCell>
        <mxCell id="hHdZRXitBn-5caflbpVJ-127" value="4" style="ellipse;whiteSpace=wrap;html=1;aspect=fixed;fontFamily=Helvetica;fontSize=11;fillColor=#cdeb8b;strokeColor=#36393d;" parent="hHdZRXitBn-5caflbpVJ-202" vertex="1">
          <mxGeometry x="35" y="70" width="10" height="10" as="geometry" />
        </mxCell>
        <mxCell id="hHdZRXitBn-5caflbpVJ-203" value="" style="group" parent="1" vertex="1" connectable="0">
          <mxGeometry x="225" y="870" width="80" height="80" as="geometry" />
        </mxCell>
        <mxCell id="hHdZRXitBn-5caflbpVJ-16" value="p1r8v" style="rounded=1;whiteSpace=wrap;html=1;" parent="hHdZRXitBn-5caflbpVJ-203" vertex="1">
          <mxGeometry width="80" height="80" as="geometry" />
        </mxCell>
        <mxCell id="hHdZRXitBn-5caflbpVJ-160" value="2" style="ellipse;whiteSpace=wrap;html=1;aspect=fixed;fontFamily=Helvetica;fontSize=11;fillColor=#cdeb8b;strokeColor=#36393d;" parent="hHdZRXitBn-5caflbpVJ-203" vertex="1">
          <mxGeometry x="35" width="10" height="10" as="geometry" />
        </mxCell>
        <mxCell id="hHdZRXitBn-5caflbpVJ-161" value="1" style="ellipse;whiteSpace=wrap;html=1;aspect=fixed;fontFamily=Helvetica;fontSize=11;fillColor=#cdeb8b;strokeColor=#36393d;" parent="hHdZRXitBn-5caflbpVJ-203" vertex="1">
          <mxGeometry y="35" width="10" height="10" as="geometry" />
        </mxCell>
        <mxCell id="hHdZRXitBn-5caflbpVJ-162" value="4" style="ellipse;whiteSpace=wrap;html=1;aspect=fixed;fontFamily=Helvetica;fontSize=11;fillColor=#ffcccc;strokeColor=#36393d;" parent="hHdZRXitBn-5caflbpVJ-203" vertex="1">
          <mxGeometry x="35" y="70" width="10" height="10" as="geometry" />
        </mxCell>
        <mxCell id="hHdZRXitBn-5caflbpVJ-163" value="3" style="ellipse;whiteSpace=wrap;html=1;aspect=fixed;fontFamily=Helvetica;fontSize=11;fillColor=#cdeb8b;strokeColor=#36393d;" parent="hHdZRXitBn-5caflbpVJ-203" vertex="1">
          <mxGeometry x="70" y="35" width="10" height="10" as="geometry" />
        </mxCell>
        <mxCell id="hHdZRXitBn-5caflbpVJ-204" value="" style="group" parent="1" vertex="1" connectable="0">
          <mxGeometry x="115" y="870" width="80" height="80" as="geometry" />
        </mxCell>
        <mxCell id="hHdZRXitBn-5caflbpVJ-15" value="p1r7v" style="rounded=1;whiteSpace=wrap;html=1;" parent="hHdZRXitBn-5caflbpVJ-204" vertex="1">
          <mxGeometry width="80" height="80" as="geometry" />
        </mxCell>
        <mxCell id="hHdZRXitBn-5caflbpVJ-164" value="2" style="ellipse;whiteSpace=wrap;html=1;aspect=fixed;fontFamily=Helvetica;fontSize=11;fillColor=#cdeb8b;strokeColor=#36393d;" parent="hHdZRXitBn-5caflbpVJ-204" vertex="1">
          <mxGeometry x="35" width="10" height="10" as="geometry" />
        </mxCell>
        <mxCell id="hHdZRXitBn-5caflbpVJ-165" value="1" style="ellipse;whiteSpace=wrap;html=1;aspect=fixed;fontFamily=Helvetica;fontSize=11;fillColor=#cdeb8b;strokeColor=#36393d;" parent="hHdZRXitBn-5caflbpVJ-204" vertex="1">
          <mxGeometry y="35" width="10" height="10" as="geometry" />
        </mxCell>
        <mxCell id="hHdZRXitBn-5caflbpVJ-166" value="4" style="ellipse;whiteSpace=wrap;html=1;aspect=fixed;fontFamily=Helvetica;fontSize=11;fillColor=#ffcccc;strokeColor=#36393d;" parent="hHdZRXitBn-5caflbpVJ-204" vertex="1">
          <mxGeometry x="35" y="70" width="10" height="10" as="geometry" />
        </mxCell>
        <mxCell id="hHdZRXitBn-5caflbpVJ-167" value="3" style="ellipse;whiteSpace=wrap;html=1;aspect=fixed;fontFamily=Helvetica;fontSize=11;fillColor=#cdeb8b;strokeColor=#36393d;" parent="hHdZRXitBn-5caflbpVJ-204" vertex="1">
          <mxGeometry x="70" y="35" width="10" height="10" as="geometry" />
        </mxCell>
        <mxCell id="hHdZRXitBn-5caflbpVJ-205" value="" style="group" parent="1" vertex="1" connectable="0">
          <mxGeometry x="115" y="750" width="80" height="80" as="geometry" />
        </mxCell>
        <mxCell id="hHdZRXitBn-5caflbpVJ-11" value="p1r3v" style="rounded=1;whiteSpace=wrap;html=1;" parent="hHdZRXitBn-5caflbpVJ-205" vertex="1">
          <mxGeometry width="80" height="80" as="geometry" />
        </mxCell>
        <mxCell id="hHdZRXitBn-5caflbpVJ-108" value="1" style="ellipse;whiteSpace=wrap;html=1;aspect=fixed;fontFamily=Helvetica;fontSize=11;fillColor=#cdeb8b;strokeColor=#36393d;" parent="hHdZRXitBn-5caflbpVJ-205" vertex="1">
          <mxGeometry y="35" width="10" height="10" as="geometry" />
        </mxCell>
        <mxCell id="hHdZRXitBn-5caflbpVJ-109" value="2" style="ellipse;whiteSpace=wrap;html=1;aspect=fixed;fontFamily=Helvetica;fontSize=11;fillColor=#ffcccc;strokeColor=#36393d;" parent="hHdZRXitBn-5caflbpVJ-205" vertex="1">
          <mxGeometry x="35" width="10" height="10" as="geometry" />
        </mxCell>
        <mxCell id="hHdZRXitBn-5caflbpVJ-110" value="3" style="ellipse;whiteSpace=wrap;html=1;aspect=fixed;fontFamily=Helvetica;fontSize=11;fillColor=#cdeb8b;strokeColor=#36393d;" parent="hHdZRXitBn-5caflbpVJ-205" vertex="1">
          <mxGeometry x="70" y="35" width="10" height="10" as="geometry" />
        </mxCell>
        <mxCell id="hHdZRXitBn-5caflbpVJ-111" value="4" style="ellipse;whiteSpace=wrap;html=1;aspect=fixed;fontFamily=Helvetica;fontSize=11;fillColor=#cdeb8b;strokeColor=#36393d;" parent="hHdZRXitBn-5caflbpVJ-205" vertex="1">
          <mxGeometry x="35" y="70" width="10" height="10" as="geometry" />
        </mxCell>
        <mxCell id="hHdZRXitBn-5caflbpVJ-206" value="" style="group" parent="1" vertex="1" connectable="0">
          <mxGeometry x="5" y="750" width="80" height="80" as="geometry" />
        </mxCell>
        <mxCell id="hHdZRXitBn-5caflbpVJ-10" value="p1r2v" style="rounded=1;whiteSpace=wrap;html=1;" parent="hHdZRXitBn-5caflbpVJ-206" vertex="1">
          <mxGeometry width="80" height="80" as="geometry" />
        </mxCell>
        <mxCell id="hHdZRXitBn-5caflbpVJ-104" value="1" style="ellipse;whiteSpace=wrap;html=1;aspect=fixed;fontFamily=Helvetica;fontSize=11;fillColor=#cdeb8b;strokeColor=#36393d;" parent="hHdZRXitBn-5caflbpVJ-206" vertex="1">
          <mxGeometry y="35" width="10" height="10" as="geometry" />
        </mxCell>
        <mxCell id="hHdZRXitBn-5caflbpVJ-105" value="2" style="ellipse;whiteSpace=wrap;html=1;aspect=fixed;fontFamily=Helvetica;fontSize=11;fillColor=#ffcccc;strokeColor=#36393d;" parent="hHdZRXitBn-5caflbpVJ-206" vertex="1">
          <mxGeometry x="35" width="10" height="10" as="geometry" />
        </mxCell>
        <mxCell id="hHdZRXitBn-5caflbpVJ-106" value="3" style="ellipse;whiteSpace=wrap;html=1;aspect=fixed;fontFamily=Helvetica;fontSize=11;fillColor=#cdeb8b;strokeColor=#36393d;" parent="hHdZRXitBn-5caflbpVJ-206" vertex="1">
          <mxGeometry x="70" y="35" width="10" height="10" as="geometry" />
        </mxCell>
        <mxCell id="hHdZRXitBn-5caflbpVJ-107" value="4" style="ellipse;whiteSpace=wrap;html=1;aspect=fixed;fontFamily=Helvetica;fontSize=11;fillColor=#cdeb8b;strokeColor=#36393d;" parent="hHdZRXitBn-5caflbpVJ-206" vertex="1">
          <mxGeometry x="35" y="70" width="10" height="10" as="geometry" />
        </mxCell>
        <mxCell id="hHdZRXitBn-5caflbpVJ-45" value="" style="edgeStyle=orthogonalEdgeStyle;shape=connector;rounded=0;orthogonalLoop=1;jettySize=auto;html=1;labelBackgroundColor=default;strokeColor=default;strokeWidth=2;align=center;verticalAlign=middle;fontFamily=Helvetica;fontSize=11;fontColor=default;endArrow=none;endFill=0;" parent="1" source="hHdZRXitBn-5caflbpVJ-9" target="hHdZRXitBn-5caflbpVJ-10" edge="1">
          <mxGeometry relative="1" as="geometry" />
        </mxCell>
        <mxCell id="hHdZRXitBn-5caflbpVJ-207" value="" style="group" parent="1" vertex="1" connectable="0">
          <mxGeometry x="5" y="870" width="80" height="80" as="geometry" />
        </mxCell>
        <mxCell id="hHdZRXitBn-5caflbpVJ-14" value="p1r6v" style="rounded=1;whiteSpace=wrap;html=1;" parent="hHdZRXitBn-5caflbpVJ-207" vertex="1">
          <mxGeometry width="80" height="80" as="geometry" />
        </mxCell>
        <mxCell id="hHdZRXitBn-5caflbpVJ-168" value="2" style="ellipse;whiteSpace=wrap;html=1;aspect=fixed;fontFamily=Helvetica;fontSize=11;fillColor=#cdeb8b;strokeColor=#36393d;" parent="hHdZRXitBn-5caflbpVJ-207" vertex="1">
          <mxGeometry x="35" width="10" height="10" as="geometry" />
        </mxCell>
        <mxCell id="hHdZRXitBn-5caflbpVJ-169" value="1" style="ellipse;whiteSpace=wrap;html=1;aspect=fixed;fontFamily=Helvetica;fontSize=11;fillColor=#cdeb8b;strokeColor=#36393d;" parent="hHdZRXitBn-5caflbpVJ-207" vertex="1">
          <mxGeometry y="35" width="10" height="10" as="geometry" />
        </mxCell>
        <mxCell id="hHdZRXitBn-5caflbpVJ-170" value="4" style="ellipse;whiteSpace=wrap;html=1;aspect=fixed;fontFamily=Helvetica;fontSize=11;fillColor=#ffcccc;strokeColor=#36393d;" parent="hHdZRXitBn-5caflbpVJ-207" vertex="1">
          <mxGeometry x="35" y="70" width="10" height="10" as="geometry" />
        </mxCell>
        <mxCell id="hHdZRXitBn-5caflbpVJ-171" value="3" style="ellipse;whiteSpace=wrap;html=1;aspect=fixed;fontFamily=Helvetica;fontSize=11;fillColor=#cdeb8b;strokeColor=#36393d;" parent="hHdZRXitBn-5caflbpVJ-207" vertex="1">
          <mxGeometry x="70" y="35" width="10" height="10" as="geometry" />
        </mxCell>
        <mxCell id="hHdZRXitBn-5caflbpVJ-208" value="" style="group" parent="1" vertex="1" connectable="0">
          <mxGeometry x="-105" y="870" width="80" height="80" as="geometry" />
        </mxCell>
        <mxCell id="hHdZRXitBn-5caflbpVJ-13" value="p1r5v" style="rounded=1;whiteSpace=wrap;html=1;" parent="hHdZRXitBn-5caflbpVJ-208" vertex="1">
          <mxGeometry width="80" height="80" as="geometry" />
        </mxCell>
        <mxCell id="hHdZRXitBn-5caflbpVJ-172" value="2" style="ellipse;whiteSpace=wrap;html=1;aspect=fixed;fontFamily=Helvetica;fontSize=11;fillColor=#cdeb8b;strokeColor=#36393d;" parent="hHdZRXitBn-5caflbpVJ-208" vertex="1">
          <mxGeometry x="35" width="10" height="10" as="geometry" />
        </mxCell>
        <mxCell id="hHdZRXitBn-5caflbpVJ-173" value="1" style="ellipse;whiteSpace=wrap;html=1;aspect=fixed;fontFamily=Helvetica;fontSize=11;fillColor=#ffcccc;strokeColor=#36393d;" parent="hHdZRXitBn-5caflbpVJ-208" vertex="1">
          <mxGeometry y="35" width="10" height="10" as="geometry" />
        </mxCell>
        <mxCell id="hHdZRXitBn-5caflbpVJ-174" value="4" style="ellipse;whiteSpace=wrap;html=1;aspect=fixed;fontFamily=Helvetica;fontSize=11;fillColor=#ffcccc;strokeColor=#36393d;" parent="hHdZRXitBn-5caflbpVJ-208" vertex="1">
          <mxGeometry x="35" y="70" width="10" height="10" as="geometry" />
        </mxCell>
        <mxCell id="hHdZRXitBn-5caflbpVJ-175" value="3" style="ellipse;whiteSpace=wrap;html=1;aspect=fixed;fontFamily=Helvetica;fontSize=11;fillColor=#cdeb8b;strokeColor=#36393d;" parent="hHdZRXitBn-5caflbpVJ-208" vertex="1">
          <mxGeometry x="70" y="35" width="10" height="10" as="geometry" />
        </mxCell>
        <mxCell id="hHdZRXitBn-5caflbpVJ-209" value="" style="group" parent="1" vertex="1" connectable="0">
          <mxGeometry x="-105" y="750" width="80" height="80" as="geometry" />
        </mxCell>
        <mxCell id="hHdZRXitBn-5caflbpVJ-9" value="p1r1v" style="rounded=1;whiteSpace=wrap;html=1;" parent="hHdZRXitBn-5caflbpVJ-209" vertex="1">
          <mxGeometry width="80" height="80" as="geometry" />
        </mxCell>
        <mxCell id="hHdZRXitBn-5caflbpVJ-116" value="1" style="ellipse;whiteSpace=wrap;html=1;aspect=fixed;fontFamily=Helvetica;fontSize=11;fillColor=#cdeb8b;strokeColor=#36393d;" parent="hHdZRXitBn-5caflbpVJ-209" vertex="1">
          <mxGeometry y="35" width="10" height="10" as="geometry" />
        </mxCell>
        <mxCell id="hHdZRXitBn-5caflbpVJ-117" value="2" style="ellipse;whiteSpace=wrap;html=1;aspect=fixed;fontFamily=Helvetica;fontSize=11;fillColor=#ffcccc;strokeColor=#36393d;" parent="hHdZRXitBn-5caflbpVJ-209" vertex="1">
          <mxGeometry x="35" width="10" height="10" as="geometry" />
        </mxCell>
        <mxCell id="hHdZRXitBn-5caflbpVJ-118" value="3" style="ellipse;whiteSpace=wrap;html=1;aspect=fixed;fontFamily=Helvetica;fontSize=11;fillColor=#cdeb8b;strokeColor=#36393d;" parent="hHdZRXitBn-5caflbpVJ-209" vertex="1">
          <mxGeometry x="70" y="35" width="10" height="10" as="geometry" />
        </mxCell>
        <mxCell id="hHdZRXitBn-5caflbpVJ-119" value="4" style="ellipse;whiteSpace=wrap;html=1;aspect=fixed;fontFamily=Helvetica;fontSize=11;fillColor=#cdeb8b;strokeColor=#36393d;" parent="hHdZRXitBn-5caflbpVJ-209" vertex="1">
          <mxGeometry x="35" y="70" width="10" height="10" as="geometry" />
        </mxCell>
        <mxCell id="hHdZRXitBn-5caflbpVJ-210" style="edgeStyle=orthogonalEdgeStyle;shape=connector;rounded=0;orthogonalLoop=1;jettySize=auto;html=1;entryX=0.5;entryY=1;entryDx=0;entryDy=0;labelBackgroundColor=default;strokeColor=default;strokeWidth=2;align=center;verticalAlign=middle;fontFamily=Helvetica;fontSize=11;fontColor=default;endArrow=none;endFill=0;" parent="1" source="hHdZRXitBn-5caflbpVJ-157" target="hHdZRXitBn-5caflbpVJ-115" edge="1">
          <mxGeometry relative="1" as="geometry" />
        </mxCell>
        <mxCell id="hHdZRXitBn-5caflbpVJ-211" style="edgeStyle=orthogonalEdgeStyle;shape=connector;rounded=0;orthogonalLoop=1;jettySize=auto;html=1;entryX=0;entryY=0.5;entryDx=0;entryDy=0;labelBackgroundColor=default;strokeColor=default;strokeWidth=2;align=center;verticalAlign=middle;fontFamily=Helvetica;fontSize=11;fontColor=default;endArrow=none;endFill=0;" parent="1" source="hHdZRXitBn-5caflbpVJ-114" target="hHdZRXitBn-5caflbpVJ-100" edge="1">
          <mxGeometry relative="1" as="geometry" />
        </mxCell>
        <mxCell id="hHdZRXitBn-5caflbpVJ-213" style="edgeStyle=orthogonalEdgeStyle;shape=connector;rounded=0;orthogonalLoop=1;jettySize=auto;html=1;entryX=0.171;entryY=0.505;entryDx=0;entryDy=0;entryPerimeter=0;labelBackgroundColor=default;strokeColor=default;strokeWidth=2;align=center;verticalAlign=middle;fontFamily=Helvetica;fontSize=11;fontColor=default;endArrow=none;endFill=0;" parent="1" source="hHdZRXitBn-5caflbpVJ-102" target="hHdZRXitBn-5caflbpVJ-96" edge="1">
          <mxGeometry relative="1" as="geometry" />
        </mxCell>
        <mxCell id="hHdZRXitBn-5caflbpVJ-214" style="edgeStyle=orthogonalEdgeStyle;shape=connector;rounded=0;orthogonalLoop=1;jettySize=auto;html=1;entryX=0.157;entryY=0.461;entryDx=0;entryDy=0;entryPerimeter=0;labelBackgroundColor=default;strokeColor=default;strokeWidth=2;align=center;verticalAlign=middle;fontFamily=Helvetica;fontSize=11;fontColor=default;endArrow=none;endFill=0;" parent="1" source="hHdZRXitBn-5caflbpVJ-98" target="hHdZRXitBn-5caflbpVJ-120" edge="1">
          <mxGeometry relative="1" as="geometry" />
        </mxCell>
        <mxCell id="hHdZRXitBn-5caflbpVJ-215" style="edgeStyle=orthogonalEdgeStyle;shape=connector;rounded=0;orthogonalLoop=1;jettySize=auto;html=1;entryX=0.461;entryY=0.129;entryDx=0;entryDy=0;entryPerimeter=0;labelBackgroundColor=default;strokeColor=default;strokeWidth=2;align=center;verticalAlign=middle;fontFamily=Helvetica;fontSize=11;fontColor=default;endArrow=none;endFill=0;" parent="1" source="hHdZRXitBn-5caflbpVJ-99" target="hHdZRXitBn-5caflbpVJ-149" edge="1">
          <mxGeometry relative="1" as="geometry" />
        </mxCell>
        <mxCell id="hHdZRXitBn-5caflbpVJ-216" style="edgeStyle=orthogonalEdgeStyle;shape=connector;rounded=0;orthogonalLoop=1;jettySize=auto;html=1;entryX=0.489;entryY=0.241;entryDx=0;entryDy=0;entryPerimeter=0;labelBackgroundColor=default;strokeColor=default;strokeWidth=2;align=center;verticalAlign=middle;fontFamily=Helvetica;fontSize=11;fontColor=default;endArrow=none;endFill=0;" parent="1" source="hHdZRXitBn-5caflbpVJ-103" target="hHdZRXitBn-5caflbpVJ-153" edge="1">
          <mxGeometry relative="1" as="geometry" />
        </mxCell>
        <mxCell id="hHdZRXitBn-5caflbpVJ-217" style="edgeStyle=orthogonalEdgeStyle;shape=connector;rounded=0;orthogonalLoop=1;jettySize=auto;html=1;entryX=0.232;entryY=0.498;entryDx=0;entryDy=0;entryPerimeter=0;labelBackgroundColor=default;strokeColor=default;strokeWidth=2;align=center;verticalAlign=middle;fontFamily=Helvetica;fontSize=11;fontColor=default;endArrow=none;endFill=0;" parent="1" source="hHdZRXitBn-5caflbpVJ-158" target="hHdZRXitBn-5caflbpVJ-152" edge="1">
          <mxGeometry relative="1" as="geometry" />
        </mxCell>
        <mxCell id="hHdZRXitBn-5caflbpVJ-218" style="edgeStyle=orthogonalEdgeStyle;shape=connector;rounded=0;orthogonalLoop=1;jettySize=auto;html=1;entryX=0.204;entryY=0.517;entryDx=0;entryDy=0;entryPerimeter=0;labelBackgroundColor=default;strokeColor=default;strokeWidth=2;align=center;verticalAlign=middle;fontFamily=Helvetica;fontSize=11;fontColor=default;endArrow=none;endFill=0;" parent="1" source="hHdZRXitBn-5caflbpVJ-154" target="hHdZRXitBn-5caflbpVJ-148" edge="1">
          <mxGeometry relative="1" as="geometry" />
        </mxCell>
        <mxCell id="hHdZRXitBn-5caflbpVJ-220" style="edgeStyle=orthogonalEdgeStyle;shape=connector;rounded=0;orthogonalLoop=1;jettySize=auto;html=1;entryX=0.232;entryY=0.498;entryDx=0;entryDy=0;entryPerimeter=0;labelBackgroundColor=default;strokeColor=default;strokeWidth=2;align=center;verticalAlign=middle;fontFamily=Helvetica;fontSize=11;fontColor=default;endArrow=none;endFill=0;" parent="1" source="hHdZRXitBn-5caflbpVJ-150" target="hHdZRXitBn-5caflbpVJ-144" edge="1">
          <mxGeometry relative="1" as="geometry" />
        </mxCell>
        <mxCell id="hHdZRXitBn-5caflbpVJ-221" style="edgeStyle=orthogonalEdgeStyle;shape=connector;rounded=0;orthogonalLoop=1;jettySize=auto;html=1;entryX=0.493;entryY=0.2;entryDx=0;entryDy=0;entryPerimeter=0;labelBackgroundColor=default;strokeColor=default;strokeWidth=2;align=center;verticalAlign=middle;fontFamily=Helvetica;fontSize=11;fontColor=default;endArrow=none;endFill=0;" parent="1" source="hHdZRXitBn-5caflbpVJ-123" target="hHdZRXitBn-5caflbpVJ-145" edge="1">
          <mxGeometry relative="1" as="geometry" />
        </mxCell>
        <mxCell id="L8WDKNVMCZqGO0eqc8PA-1" style="edgeStyle=orthogonalEdgeStyle;rounded=0;orthogonalLoop=1;jettySize=auto;html=1;entryX=0.045;entryY=-0.003;entryDx=0;entryDy=0;entryPerimeter=0;strokeWidth=2;" edge="1" parent="1" source="hHdZRXitBn-5caflbpVJ-9" target="hHdZRXitBn-5caflbpVJ-33">
          <mxGeometry relative="1" as="geometry">
            <Array as="points">
              <mxPoint x="-145" y="790" />
            </Array>
          </mxGeometry>
        </mxCell>
        <mxCell id="L8WDKNVMCZqGO0eqc8PA-2" style="edgeStyle=orthogonalEdgeStyle;rounded=0;orthogonalLoop=1;jettySize=auto;html=1;entryX=0.382;entryY=0.018;entryDx=0;entryDy=0;entryPerimeter=0;strokeWidth=2;" edge="1" parent="1" source="hHdZRXitBn-5caflbpVJ-17" target="hHdZRXitBn-5caflbpVJ-33">
          <mxGeometry relative="1" as="geometry">
            <Array as="points">
              <mxPoint x="570" y="525" />
            </Array>
          </mxGeometry>
        </mxCell>
        <mxCell id="L8WDKNVMCZqGO0eqc8PA-4" style="edgeStyle=orthogonalEdgeStyle;rounded=0;orthogonalLoop=1;jettySize=auto;html=1;entryX=0.72;entryY=-0.013;entryDx=0;entryDy=0;entryPerimeter=0;strokeWidth=2;" edge="1" parent="1" source="hHdZRXitBn-5caflbpVJ-25" target="hHdZRXitBn-5caflbpVJ-33">
          <mxGeometry relative="1" as="geometry">
            <Array as="points">
              <mxPoint x="1286" y="260" />
            </Array>
          </mxGeometry>
        </mxCell>
      </root>
    </mxGraphModel>
  </diagram>
  <diagram id="xgV9tFrWJNRblv--4L0b" name="Seite-2">
    <mxGraphModel dx="2389" dy="957" grid="1" gridSize="10" guides="1" tooltips="1" connect="1" arrows="1" fold="1" page="1" pageScale="1" pageWidth="827" pageHeight="1169" math="0" shadow="0">
      <root>
        <mxCell id="0" />
        <mxCell id="1" parent="0" />
        <mxCell id="o_eXmIjLtXFP41MLl6Pt-1" value="AIBIXHQSITE" style="whiteSpace=wrap;html=1;aspect=fixed;align=left;verticalAlign=top;fontSize=18;" vertex="1" parent="1">
          <mxGeometry x="120" y="120" width="600" height="600" as="geometry" />
        </mxCell>
        <mxCell id="o_eXmIjLtXFP41MLl6Pt-2" value="LOC?" style="whiteSpace=wrap;html=1;aspect=fixed;" vertex="1" parent="1">
          <mxGeometry x="170" y="380" width="80" height="80" as="geometry" />
        </mxCell>
        <mxCell id="o_eXmIjLtXFP41MLl6Pt-4" value="" style="rounded=0;whiteSpace=wrap;html=1;" vertex="1" parent="1">
          <mxGeometry x="-260" y="130" width="230" height="590" as="geometry" />
        </mxCell>
        <mxCell id="o_eXmIjLtXFP41MLl6Pt-11" style="edgeStyle=orthogonalEdgeStyle;rounded=0;orthogonalLoop=1;jettySize=auto;html=1;entryX=0;entryY=0.25;entryDx=0;entryDy=0;" edge="1" parent="1" source="o_eXmIjLtXFP41MLl6Pt-3" target="o_eXmIjLtXFP41MLl6Pt-1">
          <mxGeometry relative="1" as="geometry" />
        </mxCell>
        <mxCell id="o_eXmIjLtXFP41MLl6Pt-3" value="TEN?" style="whiteSpace=wrap;html=1;aspect=fixed;" vertex="1" parent="1">
          <mxGeometry x="-190" y="170" width="80" height="80" as="geometry" />
        </mxCell>
        <mxCell id="o_eXmIjLtXFP41MLl6Pt-10" style="edgeStyle=orthogonalEdgeStyle;rounded=0;orthogonalLoop=1;jettySize=auto;html=1;" edge="1" parent="1" source="o_eXmIjLtXFP41MLl6Pt-5" target="o_eXmIjLtXFP41MLl6Pt-1">
          <mxGeometry relative="1" as="geometry" />
        </mxCell>
        <mxCell id="o_eXmIjLtXFP41MLl6Pt-5" value="" style="whiteSpace=wrap;html=1;aspect=fixed;" vertex="1" parent="1">
          <mxGeometry x="-190" y="300" width="80" height="80" as="geometry" />
        </mxCell>
        <mxCell id="o_eXmIjLtXFP41MLl6Pt-8" style="edgeStyle=orthogonalEdgeStyle;rounded=0;orthogonalLoop=1;jettySize=auto;html=1;entryX=0;entryY=0.75;entryDx=0;entryDy=0;" edge="1" parent="1" source="o_eXmIjLtXFP41MLl6Pt-6" target="o_eXmIjLtXFP41MLl6Pt-1">
          <mxGeometry relative="1" as="geometry" />
        </mxCell>
        <mxCell id="o_eXmIjLtXFP41MLl6Pt-6" value="" style="whiteSpace=wrap;html=1;aspect=fixed;" vertex="1" parent="1">
          <mxGeometry x="-190" y="430" width="80" height="80" as="geometry" />
        </mxCell>
        <mxCell id="o_eXmIjLtXFP41MLl6Pt-7" value="" style="whiteSpace=wrap;html=1;aspect=fixed;" vertex="1" parent="1">
          <mxGeometry x="-185" y="560" width="80" height="80" as="geometry" />
        </mxCell>
        <mxCell id="o_eXmIjLtXFP41MLl6Pt-9" style="edgeStyle=orthogonalEdgeStyle;rounded=0;orthogonalLoop=1;jettySize=auto;html=1;entryX=0.024;entryY=0.997;entryDx=0;entryDy=0;entryPerimeter=0;" edge="1" parent="1" source="o_eXmIjLtXFP41MLl6Pt-7" target="o_eXmIjLtXFP41MLl6Pt-1">
          <mxGeometry relative="1" as="geometry" />
        </mxCell>
      </root>
    </mxGraphModel>
  </diagram>
</mxfile>
